<svg xmlns="http://www.w3.org/2000/svg" width="320" height="320">
<circle cx="160" cy="160" r="160"/>
<path fill="#FFF" d="M158.524,74.566l-2.049,4.55c-4.549,0.303-9.328,5.537-14.333,15.699l-0.911,0.684l0.455,0.909l0.684,0.455
	l0.91,0.228c0.761-0.302,6.9-1.896,18.431-4.776c3.641-1.667,9.33-3.791,17.062-6.37c4.855-1.214,7.89-2.048,9.104-2.502
	c3.03-1.063,5.762-2.503,8.188-4.322c-0.604-0.151,2.73-0.229,10.014-0.229c5.155,0,8.569,1.519,10.237,4.552l0.683,4.776
	c-3.488,2.123-8.949,3.488-16.383,4.096c-9.252,0.909-15.243,1.669-17.973,2.274c-7.736,3.034-19.493,6.6-35.265,10.693
	l-11.604-2.048c-13.35,10.162-25.179,16.534-35.492,19.11l-8.19-2.729c11.375-12.438,18.277-20.4,20.705-23.89
	c7.129-9.404,11.526-18.732,13.194-27.985c-0.909-1.213-1.819-2.501-2.729-3.868c-1.518-1.972-2.2-3.109-2.049-3.412l0.455-1.364
	c0.455-0.456,0.984-0.684,1.592-0.684c0.455,0,1.252,0.19,2.39,0.568c1.139,0.379,2.009,0.568,2.615,0.568
	c0.911,0,1.821-0.303,2.731-0.91C144.341,60.004,153.517,65.313,158.524,74.566L158.524,74.566L158.524,74.566z M216.997,109.375
	c5.307,0.455,8.797,0.911,10.465,1.366c3.94,1.061,6.75,3.186,8.416,6.37l-1.137,4.096c-1.972,0.758-3.488,2.654-4.552,5.688
	c10.013,2.882,15.854,4.701,17.521,5.46c5.914,3.185,9.176,8.039,9.781,14.561l-4.095,6.598l-28.213-4.55
	c-2.729,1.214-4.703,3.641-5.916,7.281c-1.817,5.612-2.957,8.797-3.412,9.555c5.006,2.428,10.086,4.932,15.244,7.508
	c5.461,3.033,8.115,7.357,7.965,12.971v1.139l-2.049,5.006l-6.826,1.365c-2.125-0.455-7.733-2.125-16.836-5.006
	c-6.826-1.971-12.591-2.959-17.292-2.959c-1.063,0-2.653-0.111-4.776-0.34c-2.125-0.23-3.718-0.342-4.779-0.342
	c-8.039,0-21.386,2.197-40.042,6.598c-12.286,2.883-20.479,5.006-24.572,6.371c-9.556,3.186-16.836,7.129-21.841,11.83
	l-9.557-10.236l1.365-3.188l-0.91-3.188l7.053,2.049c2.275-1.213,5.649-2.541,10.125-3.98c4.475-1.441,7.621-2.539,9.439-3.299
	l-8.418-12.516l-2.048-11.146c-6.673,1.363-11.604,2.883-14.789,4.551c-4.397,2.271-8.04,5.84-10.921,10.691l-4.096,0.91
	c-3.033-1.063-5.991-3.943-8.873-8.646c-2.882-4.701-5.688-7.508-8.419-8.418l-0.683-3.186l4.096-2.729l6.143,1.819l37.77-11.376
	l-0.91-11.147l-4.322-7.28c2.882-0.455,4.322-0.682,4.322-0.683c4.396,0,8.381,1.439,11.943,4.321
	c3.563,2.883,5.348,6.521,5.348,10.92c3.791-1.061,9.403-2.881,16.836-5.46l-1.137-15.47l-5.234-6.371
	c10.923,1.518,17.673,5.766,20.251,12.741c-1.365,0.759-2.047,2.048-2.047,3.868c0,1.213,0.379,2.199,1.137,2.958
	c1.213-0.759,4.437-1.669,9.67-2.73c5.232-1.062,8.758-1.972,10.577-2.729l1.139-11.831l-6.142-5.233l6.142-1.137
	c3.185,0.758,6.371,1.516,9.556,2.275c4.248,1.061,6.295,3.563,6.143,7.508v0.455c-2.881,1.062-4.324,2.427-4.324,4.096l0.23,1.364
	c1.516,0.456,3.106,0.684,4.777,0.684c1.364,0,4.475-0.304,9.327-0.911c3.792-0.302,6.903-0.302,9.329,0
	c1.365-2.427,2.049-5.839,2.049-10.236l-4.323-4.551L216.997,109.375L216.997,109.375z M183.322,144.188
	c-2.428,3.338-3.641,10.087-3.641,20.25c-0.91,1.363-1.365,2.729-1.365,4.096c0,1.215,0.605,2.35,1.818,3.412l19.34-4.322
	c1.213-2.73,2.354-6.41,3.413-11.035c1.061-4.626,1.973-7.85,2.729-9.67c-3.032-1.972-7.583-2.958-13.65-2.958
	c-0.912,0-2.353,0.079-4.324,0.227C185.826,144.188,184.385,144.188,183.322,144.188L183.322,144.188L183.322,144.188z
	 M152.608,148.964c-0.912,8.342-1.364,12.514-1.364,12.514c0,0.455,0.112,1.252,0.342,2.389c0.227,1.141,0.34,1.936,0.34,2.393
	c0,0-0.531,4.625-1.592,13.877h1.364c2.275,0.152,5.271-0.645,8.986-2.389c3.717-1.746,6.41-2.691,8.078-2.844l-1.137-4.551
	l3.186-24.117c-1.82-0.455-3.717-0.684-5.688-0.684C160.114,145.552,155.944,146.689,152.608,148.964L152.608,148.964z
	 M124.623,158.521c-0.91,5.764-1.365,8.645-1.365,8.645s0.228,2.58,0.682,7.736c0,0.758-0.188,2.123-0.567,4.096
	c-0.381,1.971-0.57,3.412-0.57,4.324c0,1.818,0.304,3.184,0.912,4.094c4.701-1.215,11.375-3.109,20.021-5.688
	c-1.668-2.123-2.652-4.854-2.958-8.191c0,0,0-2.957,0-8.871v-5.006c0-3.338-0.606-6.145-1.819-8.419
	C134.404,151.695,129.627,154.123,124.623,158.521L124.623,158.521L124.623,158.521z M207.667,209.711
	c10.012,1.365,21.084,6.602,33.219,15.699c13.195,10.164,19.793,19.795,19.793,28.896c0,4.096-2.578,6.145-7.734,6.145
	c-5.766-2.275-10.541-5.461-14.334-9.557C224.808,236.182,214.493,222.453,207.667,209.711L207.667,209.711L207.667,209.711z
	 M200.16,252.258l-2.05,4.322l-3.641,1.139l-5.688-1.365l-11.831-12.969c-2.58-11.83-7.055-22.371-13.424-31.625h0.91
	c4.096-0.148,9.329,1.973,15.698,6.369c7.736,5.313,12.703,9.896,14.902,13.768C197.238,235.764,198.945,242.551,200.16,252.258
	L200.16,252.258L200.16,252.258z M121.666,214.945c6.977,4.248,11.867,8.418,14.674,12.514c2.806,4.096,4.892,10.086,6.257,17.975
	c0,0.305,0.191,1.176,0.57,2.615c0.377,1.441,0.565,2.467,0.565,3.07c0,1.67-1.213,3.338-3.64,5.006
	c-3.034,1.82-4.627,2.959-4.779,3.414c-5.61-2.73-9.102-6.826-10.465-12.287c-0.604-2.58-0.834-8.039-0.684-16.381
	C124.319,223.896,123.484,218.586,121.666,214.945L121.666,214.945L121.666,214.945z M92.998,216.082l2.502,2.049
	c0.457,1.063,0.758,3.336,0.912,6.824c0.149,3.49,0.758,5.84,1.818,7.055l-6.826,22.523c-3.488,0.91-5.99,3.262-7.508,7.053
	l-6.143-0.91c-2.882-2.426-4.323-5.838-4.323-10.236c0-5.156,0.91-9.252,2.73-12.285c2.274-2.275,5.535-5.84,9.782-10.693
	C87.461,224.273,89.813,220.482,92.998,216.082L92.998,216.082L92.998,216.082z"/>
</svg>
