<?xml version="1.0" encoding="UTF-8" standalone="no"?>
<!-- Generator: Adobe Illustrator 16.0.0, SVG Export Plug-In . SVG Version: 6.00 Build 0)  -->

<svg
   version="1.1"
   id="New_Power_Party_logo"
   x="0px"
   y="0px"
   width="99.966995"
   height="99.968002"
   viewBox="0 0 99.967004 99.967999"
   enable-background="new 0 0 401.016 100.633"
   xml:space="preserve"
   sodipodi:docname="New_Power_Party_logo.svg"
   inkscape:version="1.1.1 (3bf5ae0d25, 2021-09-20)"
   xmlns:inkscape="http://www.inkscape.org/namespaces/inkscape"
   xmlns:sodipodi="http://sodipodi.sourceforge.net/DTD/sodipodi-0.dtd"
   xmlns="http://www.w3.org/2000/svg"
   xmlns:svg="http://www.w3.org/2000/svg"><defs
   id="defs97"><clipPath
     clipPathUnits="userSpaceOnUse"
     id="clipPath1075"><path
       id="path1077"
       style="fill:#ff0000;fill-opacity:1;fill-rule:nonzero;stroke:none"
       d="m 321.3125,74.359375 v 3.003906 c 0.48146,0.06994 0.96156,0.153061 1.4375,0.259766 0.0428,-0.07023 0.0885,-0.138157 0.14453,-0.199219 0.12115,-0.132076 0.23296,-0.242926 0.34766,-0.357422 -0.27896,-0.778865 0.23525,-1.839612 1.80078,-2.367187 0.36378,-0.122594 0.7343,-0.234971 1.10742,-0.339844 z m 16.03711,0 c 0.0352,0.04935 0.0524,0.07672 0.0918,0.130859 0.0872,0.193698 0.18169,0.385029 0.27539,0.576172 0.60391,0.127822 1.20723,0.259372 1.8125,0.38086 0.91797,0.214543 1.85748,0.178939 2.79687,0.111328 v -1.199219 z m -14.96875,4.035156 c -0.0544,0.07622 -0.12361,0.143126 -0.16211,0.228516 -0.0264,0.05857 0.0847,-0.08324 0.12305,-0.146485 0.0121,-0.02762 0.0275,-0.05423 0.0391,-0.08203 z m -1.06836,8.458985 v 0.701172 c 0.24257,-0.06862 0.35643,-0.06399 0.74414,-0.197266 0.0295,-0.01015 0.0573,-0.02487 0.0859,-0.03711 -0.27928,-0.151348 -0.55454,-0.309045 -0.83008,-0.466796 z m 0,5.076172 v 0.644531 c 0.20569,0.0097 0.41114,0.02209 0.61523,0.04687 0.13462,0.01635 0.26709,0.0422 0.40039,0.06641 0.17627,-0.305335 0.27402,-0.465449 0.41407,-0.666016 -0.47572,-0.03715 -0.95291,-0.06338 -1.42969,-0.0918 z m 5.0957,0.279296 c -0.0368,0.06672 -0.0674,0.136929 -0.10156,0.205078 0.005,6.77e-4 0.009,0.0013 0.0137,0.002 0.047,-0.10551 0.12398,-0.272538 0.0879,-0.207032 z m -0.0879,0.207032 c -0.0426,0.09564 -0.0536,0.125074 -0.0801,0.1875 0.009,-0.03581 0.0168,-0.07161 0.0254,-0.107422 -0.12583,0.257768 -0.25023,0.516017 -0.39062,0.765625 0.15365,-0.01962 0.30831,-0.03272 0.46875,-0.03906 1.09156,-0.11243 2.15471,-0.162813 3.26367,-0.0625 0.0732,-0.01441 0.14558,-0.03217 0.21875,-0.04687 -1.15848,-0.294873 -2.32907,-0.522099 -3.50586,-0.697265 z m -0.0547,0.08008 c 0.0134,-0.02746 0.0273,-0.05472 0.041,-0.08203 -0.007,-0.0011 -0.0144,-9.01e-4 -0.0215,-0.002 -0.007,0.02797 -0.0129,0.05601 -0.0195,0.08398 z m -3.85156,0.175781 c -0.005,-0.0067 -0.0358,0.0095 -0.0605,0.01953 0.0169,0.0031 0.0339,0.0046 0.0508,0.0078 0.002,-0.0074 0.0125,-0.02384 0.01,-0.02734 z m 19.91211,5.222656 c -0.27603,0.0092 -0.55181,0.02095 -0.82812,0.02734 0.27618,0.04348 0.55202,0.08559 0.82812,0.128906 z" /></clipPath></defs><sodipodi:namedview
   id="namedview95"
   pagecolor="#505050"
   bordercolor="#ffffff"
   borderopacity="1"
   inkscape:pageshadow="0"
   inkscape:pageopacity="0"
   inkscape:pagecheckerboard="1"
   showgrid="false"
   inkscape:snap-grids="false"
   inkscape:snap-bbox="true"
   width="100.01599px"
   fit-margin-top="0"
   fit-margin-left="0"
   fit-margin-right="0"
   fit-margin-bottom="0"
   inkscape:zoom="11.313708"
   inkscape:cx="104.03309"
   inkscape:cy="48.525203"
   inkscape:window-width="1920"
   inkscape:window-height="1051"
   inkscape:window-x="-9"
   inkscape:window-y="-9"
   inkscape:window-maximized="1"
   inkscape:current-layer="New_Power_Party_logo" />
<g
   id="g92"
   sodipodi:insensitive="true"
   transform="translate(-0.014,-0.358)">
	<rect
   x="0.016000001"
   y="0.40000001"
   fill="#ffbe00"
   width="99.964996"
   height="99.926003"
   id="rect54" />
	
	
	
	
	<path
   d="m 80.42,41.064 c 4.891,-0.145 9.638,6.473 3.74,12.803 -5.897,6.184 -21.864,19.273 -29.343,19.561 -7.192,0.287 -13.952,-4.025 -13.952,-4.025 3.74,4.75 9.35,7.057 13.233,7.479 6.328,0.576 13.521,-3.735 13.521,-3.735 0,0 0.718,-0.287 0.43,0.571 -0.72,2.017 -6.472,6.041 -13.521,6.041 -7.192,-0.145 -16.686,-6.901 -16.686,-6.901 4.603,5.896 10.501,9.353 16.398,10.5 9.207,1.867 16.685,-4.894 16.685,-4.894 0,0 0.432,0.72 -0.145,1.295 -3.739,4.313 -11.218,6.765 -16.253,6.328 -11.794,-1.008 -18.843,-9.063 -18.843,-9.063 3.452,7.625 14.815,11.938 19.418,13.096 7.049,1.729 13.666,-0.438 25.316,-8.635 6.761,-4.893 13.808,-11.221 19.56,-17.109 v -36.18 c -4.006,-1.829 -9.136,-2.951 -15.532,-2.667 -7.191,0.144 -15.104,0.431 -22.87,0.574 l 7.192,-11.075 c 0,0 3.739,-5.897 13.952,-14.67 H 52.805 L 38.851,26.536 c -12.944,0.145 -24.595,0.287 -32.508,0.287 -2.158,0 -4.315,0 -6.329,0 V 44.084 C 4.905,43.797 9.507,43.508 14.829,43.365 16.987,43.219 22.74,43.077 30.076,42.79 L 0.016,99.031 v 1.295 H 0.59 L 26.05,61.058 4.762,100.326 H 7.207 L 31.372,64.365 10.516,100.324 h 2.013 L 50.79,42.07 c 15.391,-0.574 29.63,-1.006 29.63,-1.006 z"
   id="path64" />
	
	
	
	
	
	
	
	
	
	
	
	
	
</g>
</svg>
